<svg width="24" height="24" xmlns="http://www.w3.org/2000/svg" xmlns:xlink="http://www.w3.org/1999/xlink" xml:space="preserve" overflow="hidden"><defs><clipPath id="clip0"><rect x="28" y="109" width="24" height="24"/></clipPath><clipPath id="clip1"><rect x="29" y="110" width="23" height="23"/></clipPath><clipPath id="clip2"><rect x="29" y="110" width="23" height="23"/></clipPath><clipPath id="clip3"><rect x="29" y="110" width="23" height="23"/></clipPath></defs><g clip-path="url(#clip0)" transform="translate(-28 -109)"><g clip-path="url(#clip1)"><g clip-path="url(#clip2)"><g clip-path="url(#clip3)"><path d="M30.5733 122.448 32.128 124.003 33.3125 122.881 33.3125 130.598 39.3021 130.601 39.3021 124.619 41.6979 124.619 41.6979 130.602 47.6875 130.604 47.6875 122.871 48.878 123.997 50.4267 122.449 40.5 113.019ZM47.2083 130.125 42.1771 130.123 42.1771 124.139 38.8229 124.139 38.8229 130.121 33.7917 130.119 33.7917 122.427 40.5 116.074 47.2083 122.418ZM32.1371 123.334 31.26 122.458 40.5 113.679 49.74 122.458 48.8686 123.328 40.5 115.415Z" fill="#FFFFFF" fill-rule="nonzero" fill-opacity="1"/></g></g></g></g></svg>